<svg id="Capa_2" data-name="Capa 2" xmlns="http://www.w3.org/2000/svg" viewBox="0 0 901.2 864.22"><defs><style>.cls-1{font-size:199px;font-family:Gulax-Regular, Gulax;}.cls-2{fill:#6aa84f;}.cls-3{fill:#ffdb31;}.cls-4{fill:#ff4500;}</style></defs><title>logo</title><text class="cls-1" transform="matrix(-0.22, -0.94, 0.98, -0.21, 301.88, 541.54)">J</text><text class="cls-1" transform="matrix(0.08, -0.96, 1, 0.09, 285.39, 457.76)"> </text><text class="cls-1" transform="matrix(0.39, -0.88, 0.92, 0.41, 280.95, 427.88)">U</text><text class="cls-1" transform="matrix(0.67, -0.69, 0.73, 0.69, 321.44, 346.62)"> </text><text class="cls-1" transform="matrix(0.87, -0.42, 0.45, 0.89, 336.33, 320.69)">G</text><text class="cls-1" transform="matrix(0.97, -0.11, 0.12, 0.99, 421.07, 283.6)"> </text><text class="cls-1" transform="matrix(0.95, 0.22, -0.22, 0.97, 449.65, 273.58)">U</text><text class="cls-1" transform="matrix(0.83, 0.51, -0.52, 0.84, 539.28, 297.7)"> </text><text class="cls-1" transform="matrix(0.64, 0.73, -0.76, 0.64, 568.1, 308.51)">E</text><text class="cls-1" transform="matrix(0.39, 0.89, -0.93, 0.38, 622.69, 375.34)"> </text><text class="cls-1" transform="matrix(-0.05, 0.96, -1.01, -0.06, 649.84, 395.65)">M</text><rect class="cls-2" x="414.34" y="651.53" width="104" height="104"/><circle class="cls-3" cx="306.34" cy="640.53" r="52"/><polygon class="cls-4" points="674.62 598.21 689.98 656.03 647.7 698.35 590.07 682.85 574.71 625.03 616.99 582.71 674.62 598.21"/></svg>